  0
SECTION
  2
HEADER
  9
$ACADVER
  1
AC1014
  9
$ACADMAINTVER
 70
     5
  9
$DWGCODEPAGE
  3
ANSI_1252
  9
$INSBASE
 10
0.0
 20
0.0
 30
0.0
  9
$EXTMIN
 10
150.558106
 20
-257.295
 30
0.0
  9
$EXTMAX
 10
1250.558106
 20
332.609069
 30
0.0
  9
$LIMMIN
 10
0.0
 20
0.0
  9
$LIMMAX
 10
420.0
 20
297.0
  9
$ORTHOMODE
 70
     1
  9
$REGENMODE
 70
     1
  9
$FILLMODE
 70
     1
  9
$QTEXTMODE
 70
     0
  9
$MIRRTEXT
 70
     1
  9
$DRAGMODE
 70
     2
  9
$LTSCALE
 40
1.0
  9
$OSMODE
 70
   439
  9
$ATTMODE
 70
     1
  9
$TEXTSIZE
 40
2.5
  9
$TRACEWID
 40
1.0
  9
$TEXTSTYLE
  7
STANDARD
  9
$CLAYER
  8
0
  9
$CELTYPE
  6
BYLAYER
  9
$CECOLOR
 62
   256
  9
$CELTSCALE
 40
1.0
  9
$DELOBJ
 70
     1
  9
$DISPSILH
 70
     0
  9
$DIMSCALE
 40
4.0
  9
$DIMASZ
 40
2.5
  9
$DIMEXO
 40
0.625
  9
$DIMDLI
 40
3.75
  9
$DIMRND
 40
0.0
  9
$DIMDLE
 40
0.0
  9
$DIMEXE
 40
1.25
  9
$DIMTP
 40
0.0
  9
$DIMTM
 40
0.0
  9
$DIMTXT
 40
2.5
  9
$DIMCEN
 40
2.5
  9
$DIMTSZ
 40
0.0
  9
$DIMTOL
 70
     0
  9
$DIMLIM
 70
     0
  9
$DIMTIH
 70
     0
  9
$DIMTOH
 70
     0
  9
$DIMSE1
 70
     0
  9
$DIMSE2
 70
     0
  9
$DIMTAD
 70
     1
  9
$DIMZIN
 70
     8
  9
$DIMBLK
  1

  9
$DIMASO
 70
     1
  9
$DIMSHO
 70
     1
  9
$DIMPOST
  1

  9
$DIMAPOST
  1

  9
$DIMALT
 70
     0
  9
$DIMALTD
 70
     4
  9
$DIMALTF
 40
0.0394
  9
$DIMLFAC
 40
1.0
  9
$DIMTOFL
 70
     1
  9
$DIMTVP
 40
0.0
  9
$DIMTIX
 70
     0
  9
$DIMSOXD
 70
     0
  9
$DIMSAH
 70
     0
  9
$DIMBLK1
  1

  9
$DIMBLK2
  1

  9
$DIMSTYLE
  2
STANDARD
  9
$DIMCLRD
 70
     0
  9
$DIMCLRE
 70
     0
  9
$DIMCLRT
 70
     0
  9
$DIMTFAC
 40
1.0
  9
$DIMGAP
 40
0.625
  9
$DIMJUST
 70
     0
  9
$DIMSD1
 70
     0
  9
$DIMSD2
 70
     0
  9
$DIMTOLJ
 70
     1
  9
$DIMTZIN
 70
     0
  9
$DIMALTZ
 70
     0
  9
$DIMALTTZ
 70
     0
  9
$DIMFIT
 70
     3
  9
$DIMUPT
 70
     0
  9
$DIMUNIT
 70
     8
  9
$DIMDEC
 70
     0
  9
$DIMTDEC
 70
     4
  9
$DIMALTU
 70
     8
  9
$DIMALTTD
 70
     4
  9
$DIMTXSTY
  7
STANDARD
  9
$DIMAUNIT
 70
     0
  9
$LUNITS
 70
     2
  9
$LUPREC
 70
     4
  9
$SKETCHINC
 40
1.0
  9
$FILLETRAD
 40
5.0
  9
$AUNITS
 70
     0
  9
$AUPREC
 70
     0
  9
$MENU
  1
.
  9
$ELEVATION
 40
0.0
  9
$PELEVATION
 40
0.0
  9
$THICKNESS
 40
0.0
  9
$LIMCHECK
 70
     0
  9
$BLIPMODE
 70
     0
  9
$CHAMFERA
 40
10.0
  9
$CHAMFERB
 40
10.0
  9
$CHAMFERC
 40
20.0
  9
$CHAMFERD
 40
0.0
  9
$SKPOLY
 70
     0
  9
$TDCREATE
 40
2454633.689831666
  9
$TDUPDATE
 40
2454649.445470960
  9
$TDINDWG
 40
0.5519426505
  9
$TDUSRTIMER
 40
0.5519426505
  9
$USRTIMER
 70
     1
  9
$ANGBASE
 50
0.0
  9
$ANGDIR
 70
     0
  9
$PDMODE
 70
     0
  9
$PDSIZE
 40
0.0
  9
$PLINEWID
 40
0.0
  9
$COORDS
 70
     1
  9
$SPLFRAME
 70
     0
  9
$SPLINETYPE
 70
     6
  9
$SPLINESEGS
 70
     8
  9
$ATTDIA
 70
     0
  9
$ATTREQ
 70
     1
  9
$HANDLING
 70
     1
  9
$HANDSEED
  5
38C
  9
$SURFTAB1
 70
     6
  9
$SURFTAB2
 70
     6
  9
$SURFTYPE
 70
     6
  9
$SURFU
 70
     6
  9
$SURFV
 70
     6
  9
$UCSNAME
  2

  9
$UCSORG
 10
300.5581057112942
 20
-3.870045704760343
 30
0.0
  9
$UCSXDIR
 10
1.0
 20
0.0
 30
0.0
  9
$UCSYDIR
 10
0.0
 20
1.0
 30
0.0
  9
$PUCSNAME
  2

  9
$PUCSORG
 10
0.0
 20
0.0
 30
0.0
  9
$PUCSXDIR
 10
1.0
 20
0.0
 30
0.0
  9
$PUCSYDIR
 10
0.0
 20
1.0
 30
0.0
  9
$USERI1
 70
     0
  9
$USERI2
 70
     0
  9
$USERI3
 70
     0
  9
$USERI4
 70
     0
  9
$USERI5
 70
     0
  9
$USERR1
 40
0.0
  9
$USERR2
 40
0.0
  9
$USERR3
 40
0.0
  9
$USERR4
 40
0.0
  9
$USERR5
 40
0.0
  9
$WORLDVIEW
 70
     1
  9
$SHADEDGE
 70
     3
  9
$SHADEDIF
 70
    70
  9
$TILEMODE
 70
     1
  9
$MAXACTVP
 70
    48
  9
$PINSBASE
 10
0.0
 20
0.0
 30
0.0
  9
$PLIMCHECK
 70
     0
  9
$PEXTMIN
 10
0.0
 20
0.0
 30
0.0
  9
$PEXTMAX
 10
561.755976
 20
297.0
 30
0.0
  9
$PLIMMIN
 10
0.0
 20
0.0
  9
$PLIMMAX
 10
420.0
 20
297.0
  9
$UNITMODE
 70
     0
  9
$VISRETAIN
 70
     1
  9
$PLINEGEN
 70
     0
  9
$PSLTSCALE
 70
     1
  9
$TREEDEPTH
 70
  3020
  9
$PICKSTYLE
 70
     0
  9
$CMLSTYLE
  2
STANDARD
  9
$CMLJUST
 70
     0
  9
$CMLSCALE
 40
20.0
  9
$PROXYGRAPHICS
 70
     1
  9
$MEASUREMENT
 70
     1
  0
ENDSEC
  0
SECTION
  2
CLASSES
  0
ENDSEC
  0
SECTION
  2
TABLES
  0
TABLE
  2
VPORT
  5
8
100
AcDbSymbolTable
 70
     4
  0
VPORT
  5
38B
100
AcDbSymbolTableRecord
100
AcDbViewportTableRecord
  2
*ACTIVE
 70
     0
 10
0.0
 20
0.0
 11
1.0
 21
1.0
 12
690.419643
 22
31.229379
 13
0.0
 23
0.0
 14
10.0
 24
10.0
 15
10.0
 25
10.0
 16
0.0
 26
0.0
 36
1.0
 17
0.0
 27
0.0
 37
0.0
 40
610.456843
 41
1.891434
 42
50.0
 43
0.0
 44
0.0
 50
0.0
 51
0.0
 71
     0
 72
   100
 73
     1
 74
     1
 75
     0
 76
     0
 77
     0
 78
     0
  0
ENDTAB
  0
TABLE
  2
LTYPE
  5
5
100
AcDbSymbolTable
 70
     1
  0
LTYPE
  5
12
100
AcDbSymbolTableRecord
100
AcDbLinetypeTableRecord
  2
BYBLOCK
 70
     0
  3

 72
    65
 73
     0
 40
0.0
  0
LTYPE
  5
13
100
AcDbSymbolTableRecord
100
AcDbLinetypeTableRecord
  2
BYLAYER
 70
     0
  3

 72
    65
 73
     0
 40
0.0
  0
LTYPE
  5
14
100
AcDbSymbolTableRecord
100
AcDbLinetypeTableRecord
  2
CONTINUOUS
 70
     0
  3
Solid line
 72
    65
 73
     0
 40
0.0
  0
ENDTAB
  0
TABLE
  2
LAYER
  5
2
100
AcDbSymbolTable
 70
     5
  0
LAYER
  5
E
100
AcDbSymbolTableRecord
100
AcDbLayerTableRecord
  2
0
 70
     0
 62
     7
  6
CONTINUOUS
  0
LAYER
  5
13C
100
AcDbSymbolTableRecord
100
AcDbLayerTableRecord
  2
DEFPOINTS
 70
     0
 62
     7
  6
CONTINUOUS
  0
LAYER
  5
24A
100
AcDbSymbolTableRecord
100
AcDbLayerTableRecord
  2
REF_LINES
 70
     0
 62
     4
  6
CONTINUOUS
  0
ENDTAB
  0
TABLE
  2
STYLE
  5
3
100
AcDbSymbolTable
 70
     1
  0
STYLE
  5
F
100
AcDbSymbolTableRecord
100
AcDbTextStyleTableRecord
  2
STANDARD
 70
     0
 40
0.0
 41
1.0
 50
0.0
 71
     0
 42
2.5
  3
txt
  4

  0
ENDTAB
  0
TABLE
  2
VIEW
  5
6
100
AcDbSymbolTable
 70
     0
  0
ENDTAB
  0
TABLE
  2
UCS
  5
7
100
AcDbSymbolTable
 70
     0
  0
ENDTAB
  0
TABLE
  2
APPID
  5
9
100
AcDbSymbolTable
 70
     1
  0
APPID
  5
10
100
AcDbSymbolTableRecord
100
AcDbRegAppTableRecord
  2
ACAD
 70
     0
  0
ENDTAB
  0
TABLE
  2
DIMSTYLE
  5
A
100
AcDbSymbolTable
 70
     1
  0
DIMSTYLE
105
1D
102
{ACAD_REACTORS
330
36F
330
388
102
}
100
AcDbSymbolTableRecord
100
AcDbDimStyleTableRecord
  2
STANDARD
 70
     0
  3

  4

  5

  6

  7

 40
1.0
 41
0.18
 42
0.0625
 43
0.38
 44
0.18
 45
0.0
 46
0.0
 47
0.0
 48
0.0
140
0.18
141
0.09
142
0.0
143
25.4
144
1.0
145
0.0
146
1.0
147
0.09
 71
     0
 72
     0
 73
     1
 74
     1
 75
     0
 76
     0
 77
     0
 78
     0
170
     0
171
     2
172
     0
173
     0
174
     0
175
     0
176
     0
177
     0
178
     0
270
     2
271
     4
272
     4
273
     2
274
     2
340
F
275
     0
280
     0
281
     0
282
     0
283
     1
284
     0
285
     0
286
     0
287
     3
288
     0
  0
ENDTAB
  0
TABLE
  2
BLOCK_RECORD
  5
1
100
AcDbSymbolTable
 70
     7
  0
BLOCK_RECORD
  5
18
100
AcDbSymbolTableRecord
100
AcDbBlockTableRecord
  2
*MODEL_SPACE
  0
BLOCK_RECORD
  5
15
100
AcDbSymbolTableRecord
100
AcDbBlockTableRecord
  2
*PAPER_SPACE
  0
BLOCK_RECORD
  5
363
100
AcDbSymbolTableRecord
100
AcDbBlockTableRecord
  2
*D5
  0
BLOCK_RECORD
  5
37C
100
AcDbSymbolTableRecord
100
AcDbBlockTableRecord
  2
*D6
  0
ENDTAB
  0
ENDSEC
  0
SECTION
  2
BLOCKS
  0
BLOCK
  5
19
100
AcDbEntity
  8
0
100
AcDbBlockBegin
  2
*MODEL_SPACE
 70
     0
 10
0.0
 20
0.0
 30
0.0
  3
*MODEL_SPACE
  1

  0
ENDBLK
  5
1A
100
AcDbEntity
  8
0
100
AcDbBlockEnd
  0
BLOCK
  5
16
100
AcDbEntity
 67
     1
  8
0
100
AcDbBlockBegin
  2
*PAPER_SPACE
 70
     0
 10
0.0
 20
0.0
 30
0.0
  3
*PAPER_SPACE
  1

  0
ENDBLK
  5
17
100
AcDbEntity
 67
     1
  8
0
100
AcDbBlockEnd
  0
BLOCK
  5
371
100
AcDbEntity
  8
0
100
AcDbBlockBegin
  2
*D5
 70
     1
 10
0.0
 20
0.0
 30
0.0
  3
*D5
  1

  0
LINE
  5
372
100
AcDbEntity
  8
0
  6
BYBLOCK
 62
     0
100
AcDbLine
 10
233.052651
 20
-257.295
 30
0.0
 11
214.144623
 21
-257.295
 31
0.0
  0
LINE
  5
373
100
AcDbEntity
  8
0
  6
BYBLOCK
 62
     0
100
AcDbLine
 10
233.052651
 20
242.705
 30
0.0
 11
214.144623
 21
242.705
 31
0.0
  0
LINE
  5
374
100
AcDbEntity
  8
0
  6
BYBLOCK
 62
     0
100
AcDbLine
 10
219.144623
 20
-247.295
 30
0.0
 11
219.144623
 21
232.705
 31
0.0
  0
SOLID
  5
375
100
AcDbEntity
  8
0
  6
BYBLOCK
 62
     0
100
AcDbTrace
 10
217.477956
 20
-247.295
 30
0.0
 11
220.81129
 21
-247.295
 31
0.0
 12
219.144623
 22
-257.295
 32
0.0
 13
219.144623
 23
-257.295
 33
0.0
  0
SOLID
  5
376
100
AcDbEntity
  8
0
  6
BYBLOCK
 62
     0
100
AcDbTrace
 10
217.477956
 20
232.705
 30
0.0
 11
220.81129
 21
232.705
 31
0.0
 12
219.144623
 22
242.705
 32
0.0
 13
219.144623
 23
242.705
 33
0.0
  0
MTEXT
  5
377
100
AcDbEntity
  8
0
  6
BYBLOCK
 62
     0
100
AcDbMText
 10
211.644623
 20
-7.295
 30
0.0
 40
10.0
 41
0.0
 71
     5
 72
     1
  1
\A1;500
 11
0.0
 21
1.0
 31
0.0
  0
POINT
  5
378
100
AcDbEntity
  8
DEFPOINTS
  6
BYBLOCK
 62
     0
100
AcDbPoint
 10
235.552651
 20
-257.295
 30
0.0
  0
POINT
  5
379
100
AcDbEntity
  8
DEFPOINTS
  6
BYBLOCK
 62
     0
100
AcDbPoint
 10
235.552651
 20
242.705
 30
0.0
  0
POINT
  5
37A
100
AcDbEntity
  8
DEFPOINTS
  6
BYBLOCK
 62
     0
100
AcDbPoint
 10
219.144623
 20
242.705
 30
0.0
  0
ENDBLK
  5
37B
100
AcDbEntity
  8
0
100
AcDbBlockEnd
  0
BLOCK
  5
37D
100
AcDbEntity
  8
0
100
AcDbBlockBegin
  2
*D6
 70
     1
 10
0.0
 20
0.0
 30
0.0
  3
*D6
  1

  0
LINE
  5
37E
100
AcDbEntity
  8
0
  6
BYBLOCK
 62
     0
100
AcDbLine
 10
245.883633
 20
47.700033
 30
0.0
 11
245.883633
 21
81.17844
 31
0.0
  0
LINE
  5
37F
100
AcDbEntity
  8
0
  6
BYBLOCK
 62
     0
100
AcDbLine
 10
1245.883633
 20
47.700033
 30
0.0
 11
1245.883633
 21
81.17844
 31
0.0
  0
LINE
  5
380
100
AcDbEntity
  8
0
  6
BYBLOCK
 62
     0
100
AcDbLine
 10
255.883633
 20
76.17844
 30
0.0
 11
1235.883633
 21
76.17844
 31
0.0
  0
SOLID
  5
381
100
AcDbEntity
  8
0
  6
BYBLOCK
 62
     0
100
AcDbTrace
 10
255.883633
 20
77.845107
 30
0.0
 11
255.883633
 21
74.511773
 31
0.0
 12
245.883633
 22
76.17844
 32
0.0
 13
245.883633
 23
76.17844
 33
0.0
  0
SOLID
  5
382
100
AcDbEntity
  8
0
  6
BYBLOCK
 62
     0
100
AcDbTrace
 10
1235.883633
 20
77.845107
 30
0.0
 11
1235.883633
 21
74.511773
 31
0.0
 12
1245.883633
 22
76.17844
 32
0.0
 13
1245.883633
 23
76.17844
 33
0.0
  0
MTEXT
  5
383
100
AcDbEntity
  8
0
  6
BYBLOCK
 62
     0
100
AcDbMText
 10
745.883633
 20
84.511773
 30
0.0
 40
10.0
 41
0.0
 71
     5
 72
     1
  1
\A1;1,000
  0
POINT
  5
384
100
AcDbEntity
  8
DEFPOINTS
  6
BYBLOCK
 62
     0
100
AcDbPoint
 10
245.883633
 20
45.200033
 30
0.0
  0
POINT
  5
385
100
AcDbEntity
  8
DEFPOINTS
  6
BYBLOCK
 62
     0
100
AcDbPoint
 10
1245.883633
 20
45.200033
 30
0.0
  0
POINT
  5
386
100
AcDbEntity
  8
DEFPOINTS
  6
BYBLOCK
 62
     0
100
AcDbPoint
 10
1245.883633
 20
76.17844
 30
0.0
  0
ENDBLK
  5
387
100
AcDbEntity
  8
0
100
AcDbBlockEnd
  0
ENDSEC
  0
SECTION
  2
ENTITIES
  0
ARC
  5
2D
100
AcDbEntity
  8
0
100
AcDbCircle
 10
1379.672149
 20
179.24455
 30
0.0
 40
300.0
100
AcDbArc
 50
166.947476
 51
188.284725
  0
LINE
  5
35
100
AcDbEntity
  8
0
100
AcDbLine
 10
842.955538
 20
268.985
 30
0.0
 11
1098.424035
 21
330.98935
 31
0.0
  0
ARC
  5
3C
100
AcDbEntity
  8
0
100
AcDbCircle
 10
820.421871
 20
272.482691
 30
0.0
 40
19.0
100
AcDbArc
 50
295.708549
 51
317.606324
  0
LINE
  5
3D
100
AcDbEntity
  8
0
100
AcDbLine
 10
842.955538
 20
268.985
 30
0.0
 11
834.453936
 21
259.672494
 31
0.0
  0
ARC
  5
40
100
AcDbEntity
  8
0
100
AcDbCircle
 10
905.455166
 20
134.137692
 30
0.0
 40
25.0
100
AcDbArc
 50
32.47916
 51
96.43204
  0
ARC
  5
41
100
AcDbEntity
  8
0
100
AcDbCircle
 10
919.862496
 20
-448.91842
 30
0.0
 40
606.0
100
AcDbArc
 50
96.43204
 51
101.062776
  0
LINE
  5
42
100
AcDbEntity
  8
0
100
AcDbLine
 10
949.433778
 20
111.605217
 30
0.0
 11
926.544836
 21
147.562512
 31
0.0
  0
LINE
  5
43
100
AcDbEntity
  8
0
100
AcDbLine
 10
902.65455
 20
158.980327
 30
0.0
 11
851.975573
 21
153.267072
 31
0.0
  0
LINE
  5
44
100
AcDbEntity
  8
0
100
AcDbLine
 10
669.596388
 20
119.624345
 30
0.0
 11
803.580551
 21
145.820607
 31
0.0
  0
LINE
  5
48
100
AcDbEntity
  8
0
100
AcDbLine
 10
669.596388
 20
119.624345
 30
0.0
 11
510.073125
 21
86.788393
 31
0.0
  0
ARC
  5
69
100
AcDbEntity
  8
0
100
AcDbCircle
 10
951.964538
 20
113.216195
 30
0.0
 40
3.0
100
AcDbArc
 50
212.47916
 51
279.123879
  0
ARC
  5
6A
100
AcDbEntity
  8
0
100
AcDbCircle
 10
415.432172
 20
52.730627
 30
0.0
 40
3.0
100
AcDbArc
 50
272.456076
 51
10.953961
  0
MTEXT
  5
8D
100
AcDbEntity
  8
REF_LINES
100
AcDbMText
 10
463.879002
 20
-95.437281
 30
0.0
 40
10.0
 41
234.671
 71
     1
 72
     5
  1
Right Outside
 11
0.995312
 21
0.096721
 31
0.0
  0
LINE
  5
C4
100
AcDbEntity
  8
0
100
AcDbLine
 10
497.7159
 20
-137.792164
 30
0.0
 11
548.476788
 21
-142.724931
 31
0.0
  0
LINE
  5
C7
100
AcDbEntity
  8
0
100
AcDbLine
 10
451.671186
 20
-185.881472
 30
0.0
 11
474.004132
 21
-149.576235
 31
0.0
  0
ARC
  5
C9
100
AcDbEntity
  8
0
100
AcDbCircle
 10
449.115936
 20
-184.309626
 30
0.0
 40
3.0
100
AcDbArc
 50
262.196094
 51
328.402502
  0
ARC
  5
CA
100
AcDbEntity
  8
0
100
AcDbCircle
 10
495.297877
 20
-162.674952
 30
0.0
 40
25.0
100
AcDbArc
 50
84.449623
 51
148.402502
  0
ARC
  5
CC
100
AcDbEntity
  8
0
100
AcDbCircle
 10
489.863915
 20
-745.883725
 30
0.0
 40
606.0
100
AcDbArc
 50
78.746125
 51
84.449623
  0
ARC
  5
10A
100
AcDbEntity
  8
0
100
AcDbCircle
 10
1077.83435
 20
135.456708
 30
0.0
 40
5.0
100
AcDbArc
 50
279.123879
 51
10.076677
  0
ARC
  5
110
100
AcDbEntity
  8
0
100
AcDbCircle
 10
729.310809
 20
221.957977
 30
0.0
 40
13.0
100
AcDbArc
 50
277.58549
 51
295.708549
  0
ARC
  5
111
100
AcDbEntity
  8
0
100
AcDbCircle
 10
581.584774
 20
202.285191
 30
0.0
 40
13.0
100
AcDbArc
 50
272.438008
 51
277.58549
  0
LINE
  5
113
100
AcDbEntity
  8
0
100
AcDbLine
 10
731.026879
 20
209.07174
 30
0.0
 11
583.300844
 21
189.398954
 31
0.0
  0
LINE
  5
114
100
AcDbEntity
  8
0
100
AcDbLine
 10
828.663948
 20
255.363457
 30
0.0
 11
734.950125
 21
210.244817
 31
0.0
  0
ARC
  5
116
100
AcDbEntity
  8
0
100
AcDbCircle
 10
427.525094
 20
69.18893
 30
0.0
 40
12.0
100
AcDbArc
 50
87.999197
 51
190.953961
  0
ARC
  5
119
100
AcDbEntity
  8
0
100
AcDbCircle
 10
296.355977
 20
54.401679
 30
0.0
 40
7.0
100
AcDbArc
 50
170.014768
 51
268.492853
  0
ARC
  5
11B
100
AcDbEntity
  8
0
100
AcDbCircle
 10
295.943217
 20
174.108946
 30
0.0
 40
3.0
100
AcDbArc
 50
92.438008
 51
186.590613
  0
LINE
  5
11C
100
AcDbEntity
  8
0
100
AcDbLine
 10
336.511539
 20
46.342734
 30
0.0
 11
296.171865
 21
47.404101
 31
0.0
  0
LINE
  5
11D
100
AcDbEntity
  8
0
100
AcDbLine
 10
295.815602
 20
177.10623
 30
0.0
 11
582.137774
 21
189.296959
 31
0.0
  0
LINE
  5
120
100
AcDbEntity
  8
0
100
AcDbLine
 10
1078.627198
 20
130.519969
 30
0.0
 11
952.440247
 21
110.254152
 31
0.0
  0
ARC
  5
127
100
AcDbEntity
  8
0
100
AcDbCircle
 10
441.909458
 20
480.937749
 30
0.0
 40
400.0
100
AcDbArc
 50
267.999197
 51
279.81161
  0
LINE
  5
12B
100
AcDbEntity
  8
0
100
AcDbLine
 10
415.743731
 20
66.908688
 30
0.0
 11
418.377513
 21
53.300687
 31
0.0
  0
LINE
  5
12C
100
AcDbEntity
  8
0
100
AcDbLine
 10
336.511539
 20
46.342734
 30
0.0
 11
415.560733
 21
49.733383
 31
0.0
  0
ARC
  5
131
100
AcDbEntity
  8
0
100
AcDbCircle
 10
-114.327507
 20
126.707117
 30
0.0
 40
410.0
100
AcDbArc
 50
350.014768
 51
6.590613
  0
ARC
  5
19C
100
AcDbEntity
  8
0
100
AcDbCircle
 10
713.534852
 20
-161.778831
 30
0.0
 40
6.0
100
AcDbArc
 50
261.201741
 51
317.876592
  0
LINE
  5
19F
100
AcDbEntity
  8
0
100
AcDbLine
 10
608.128845
 20
-151.535842
 30
0.0
 11
712.617118
 21
-167.708229
 31
0.0
  0
ARC
  5
1A0
100
AcDbEntity
  8
0
100
AcDbCircle
 10
742.461226
 20
-187.937289
 30
0.0
 40
33.0
100
AcDbArc
 50
78.162183
 51
137.876592
  0
ARC
  5
1A2
100
AcDbEntity
  8
0
100
AcDbCircle
 10
981.386067
 20
-227.996102
 30
0.0
 40
11.0
100
AcDbArc
 50
198.483375
 51
268.134078
  0
ARC
  5
1A3
100
AcDbEntity
  8
0
100
AcDbCircle
 10
937.398917
 20
-225.731005
 30
0.0
 40
30.0
100
AcDbArc
 50
18.483375
 51
78.162183
  0
LINE
  5
1A4
100
AcDbEntity
  8
0
100
AcDbLine
 10
970.953494
 20
-231.483426
 30
0.0
 11
965.851388
 21
-216.22012
 31
0.0
  0
LINE
  5
1A6
100
AcDbEntity
  8
0
100
AcDbLine
 10
1054.607395
 20
-241.387342
 30
0.0
 11
981.027899
 21
-238.990269
 31
0.0
  0
ARC
  5
1A7
100
AcDbEntity
  8
0
100
AcDbCircle
 10
1101.210335
 20
-235.621365
 30
0.0
 40
4.0
100
AcDbArc
 50
272.526146
 51
8.55676
  0
LINE
  5
1A8
100
AcDbEntity
  8
0
100
AcDbLine
 10
1062.270995
 20
-241.343188
 30
0.0
 11
1101.386636
 21
-239.617478
 31
0.0
  0
ARC
  5
1A9
100
AcDbEntity
  8
0
100
AcDbCircle
 10
1057.863468
 20
-141.440366
 30
0.0
 40
100.0
100
AcDbArc
 50
268.134078
 51
272.526146
  0
ARC
  5
1AA
100
AcDbEntity
  8
0
100
AcDbCircle
 10
1098.979204
 20
-113.834576
 30
0.0
 40
6.0
100
AcDbArc
 50
351.681081
 51
88.298774
  0
ARC
  5
1AD
100
AcDbEntity
  8
0
100
AcDbCircle
 10
1510.602081
 20
-174.022676
 30
0.0
 40
410.0
100
AcDbArc
 50
171.681081
 51
188.55676
  0
LINE
  5
1AE
100
AcDbEntity
  8
0
100
AcDbLine
 10
943.55318
 20
-196.369039
 30
0.0
 11
749.230915
 21
-155.639126
 31
0.0
  0
ARC
  5
1B0
100
AcDbEntity
  8
0
100
AcDbCircle
 10
817.209317
 20
-87.457869
 30
0.0
 40
12.0
100
AcDbArc
 50
249.740127
 51
268.298774
  0
LINE
  5
1B1
100
AcDbEntity
  8
0
100
AcDbLine
 10
1099.15733
 20
-107.837221
 30
0.0
 11
816.853066
 21
-99.45258
 31
0.0
  0
ARC
  5
1B2
100
AcDbEntity
  8
0
100
AcDbCircle
 10
552.730921
 20
-17.549514
 30
0.0
 40
14.0
100
AcDbArc
 50
69.740127
 51
83.665826
  0
LINE
  5
1B3
100
AcDbEntity
  8
0
100
AcDbLine
 10
813.053972
 20
-98.715449
 30
0.0
 11
557.578823
 21
-4.415671
 31
0.0
  0
LINE
  5
1B4
100
AcDbEntity
  8
0
100
AcDbLine
 10
481.523992
 20
4.440785
 30
0.0
 11
554.275501
 21
-3.63498
 31
0.0
  0
LINE
  5
1B5
100
AcDbEntity
  8
0
100
AcDbLine
 10
456.737925
 20
7.85412
 30
0.0
 11
481.523992
 21
4.440785
 31
0.0
  0
ARC
  5
1B6
100
AcDbEntity
  8
0
100
AcDbCircle
 10
284.714367
 20
36.627297
 30
0.0
 40
6.0
100
AcDbArc
 50
78.533013
 51
183.345493
  0
LINE
  5
1B7
100
AcDbEntity
  8
0
100
AcDbLine
 10
456.737925
 20
7.85412
 30
0.0
 11
285.907187
 21
42.507534
 31
0.0
  0
ARC
  5
1B8
100
AcDbEntity
  8
0
100
AcDbCircle
 10
388.794679
 20
1.395371
 30
0.0
 40
100.0
100
AcDbArc
 50
196.238713
 51
219.856227
  0
ARC
  5
1BB
100
AcDbEntity
  8
0
100
AcDbCircle
 10
478.383752
 20
47.948496
 30
0.0
 40
200.0
100
AcDbArc
 50
183.345493
 51
201.875164
  0
ARC
  5
1C1
100
AcDbEntity
  8
0
100
AcDbCircle
 10
323.485138
 20
-164.063578
 30
0.0
 40
6.0
100
AcDbArc
 50
173.615189
 51
262.196094
  0
LINE
  5
1C3
100
AcDbEntity
  8
0
100
AcDbLine
 10
448.708587
 20
-187.281842
 30
0.0
 11
322.670439
 21
-170.008009
 31
0.0
  0
ARC
  5
1CD
100
AcDbEntity
  8
0
100
AcDbCircle
 10
118.330026
 20
-145.425439
 30
0.0
 40
200.0
100
AcDbArc
 50
354.808985
 51
8.389165
  0
ARC
  5
1CF
100
AcDbEntity
  8
0
100
AcDbCircle
 10
612.007179
 20
-66.32426
 30
0.0
 40
300.0
100
AcDbArc
 50
179.306075
 51
189.578958
  0
ARC
  5
23B
100
AcDbEntity
  8
0
100
AcDbCircle
 10
609.081492
 20
392.563219
 30
0.0
 40
500.0
100
AcDbArc
 50
343.074331
 51
352.287193
  0
ARC
  5
23C
100
AcDbEntity
  8
0
100
AcDbCircle
 10
1099.60334
 20
326.130416
 30
0.0
 40
5.0
100
AcDbArc
 50
352.287193
 51
103.642371
  0
MTEXT
  5
361
100
AcDbEntity
  8
REF_LINES
100
AcDbMText
 10
794.613
 20
227.990456
 30
0.0
 40
10.0
 41
227.813312
 71
     1
 72
     5
  1
Left Outside
 11
0.993705
 21
-0.112025
 31
0.0
  0
LINE
  5
362
100
AcDbEntity
  8
REF_LINES
100
AcDbLine
 10
235.552651
 20
-257.295
 30
0.0
 11
235.552651
 21
242.705
 31
0.0
  0
DIMENSION
  5
36F
100
AcDbEntity
  8
REF_LINES
100
AcDbDimension
  2
*D5
 10
219.144623
 20
242.705
 30
0.0
 11
211.644623
 21
-7.295
 31
0.0
 70
    32
  3
STANDARD
100
AcDbAlignedDimension
 13
235.552651
 23
-257.295
 33
0.0
 14
235.552651
 24
242.705
 34
0.0
 50
90.0
100
AcDbRotatedDimension
1001
ACAD
1000
DSTYLE
1002
{
1070
    78
1070
     8
1070
   270
1070
     8
1070
   140
1040
2.5
1070
    74
1070
     0
1070
   172
1070
     1
1070
    73
1070
     0
1070
    77
1070
     1
1070
    40
1040
4.0
1070
   147
1040
0.625
1070
    42
1040
0.625
1070
    44
1040
1.25
1070
    43
1040
3.75
1070
   271
1070
     0
1070
   141
1040
2.5
1070
    41
1040
2.5
1070
   273
1070
     8
1070
   274
1070
     4
1070
   143
1040
0.0394
1070
   171
1070
     4
1002
}
  0
LINE
  5
370
100
AcDbEntity
  8
REF_LINES
100
AcDbLine
 10
245.883633
 20
45.200033
 30
0.0
 11
1245.883633
 21
45.200033
 31
0.0
  0
DIMENSION
  5
388
100
AcDbEntity
  8
REF_LINES
100
AcDbDimension
  2
*D6
 10
1245.883633
 20
76.17844
 30
0.0
 11
745.883633
 21
84.511773
 31
0.0
 70
    32
  3
STANDARD
100
AcDbAlignedDimension
 13
245.883633
 23
45.200033
 33
0.0
 14
1245.883633
 24
45.200033
 34
0.0
100
AcDbRotatedDimension
1001
ACAD
1000
DSTYLE
1002
{
1070
    78
1070
     8
1070
   270
1070
     8
1070
   140
1040
2.5
1070
    74
1070
     0
1070
   172
1070
     1
1070
    73
1070
     0
1070
    77
1070
     1
1070
    40
1040
4.0
1070
   147
1040
0.625
1070
    42
1040
0.625
1070
    44
1040
1.25
1070
    43
1040
3.75
1070
   271
1070
     0
1070
   141
1040
2.5
1070
    41
1040
2.5
1070
   273
1070
     8
1070
   274
1070
     4
1070
   143
1040
0.0394
1070
   171
1070
     4
1002
}
  0
VIEWPORT
  5
247
100
AcDbEntity
 67
     1
  8
0
100
AcDbViewport
 10
280.877988
 20
148.5
 30
0.0
 40
561.755976
 41
297.0
 68
     1
 69
     1
1001
ACAD
1000
MVIEW
1002
{
1070
    16
1010
0.0
1020
0.0
1030
0.0
1010
0.0
1020
0.0
1030
1.0
1040
0.0
1040
297.0
1040
280.877988
1040
148.5
1040
50.0
1040
0.0
1040
0.0
1070
     0
1070
   100
1070
     1
1070
     1
1070
     0
1070
     0
1070
     0
1070
     0
1040
0.0
1040
0.0
1040
0.0
1040
10.0
1040
10.0
1040
10.0
1040
10.0
1070
     0
1002
{
1002
}
1002
}
  0
VIEWPORT
  5
249
100
AcDbEntity
 67
     1
  8
0
100
AcDbViewport
 10
280.877988
 20
148.5
 30
0.0
 40
561.755976
 41
297.0
 68
    -1
 69
     2
1001
ACAD
1000
MVIEW
1002
{
1070
    16
1010
0.0
1020
0.0
1030
0.0
1010
0.0
1020
0.0
1030
1.0
1040
0.0
1040
608.862704
1040
573.996507
1040
31.217211
1040
50.0
1040
0.0
1040
0.0
1070
     0
1070
   100
1070
     1
1070
     1
1070
     0
1070
     0
1070
     0
1070
     0
1040
0.0
1040
0.0
1040
0.0
1040
10.0
1040
10.0
1040
10.0
1040
10.0
1070
     0
1002
{
1002
}
1002
}
  0
ENDSEC
  0
SECTION
  2
OBJECTS
  0
DICTIONARY
  5
C
100
AcDbDictionary
  3
ACAD_GROUP
350
D
  3
ACAD_MLINESTYLE
350
1B
  0
DICTIONARY
  5
D
102
{ACAD_REACTORS
330
C
102
}
100
AcDbDictionary
  0
DICTIONARY
  5
1B
102
{ACAD_REACTORS
330
C
102
}
100
AcDbDictionary
  3
STANDARD
350
1C
  0
MLINESTYLE
  5
1C
102
{ACAD_REACTORS
330
1B
102
}
100
AcDbMlineStyle
  2
STANDARD
 70
     0
  3

 62
   256
 51
90.0
 52
90.0
 71
     2
 49
0.5
 62
   256
  6
BYLAYER
 49
-0.5
 62
   256
  6
BYLAYER
  0
ENDSEC
  0
EOF
