  0
SECTION
  2
HEADER
  9
$ACADVER
  1
AC1015
  9
$ACADMAINTVER
 70
     6
  9
$DWGCODEPAGE
  3
ANSI_1252
  9
$INSBASE
 10
0.0
 20
0.0
 30
0.0
  9
$EXTMIN
 10
206.6199245964339
 20
-262.5787158034345
 30
-0.0015258207003583
  9
$EXTMAX
 10
1245.92118233527
 20
332.6270728170104
 30
0.0000000349246037
  9
$LIMMIN
 10
0.0
 20
0.0
  9
$LIMMAX
 10
420.0
 20
297.0
  9
$ORTHOMODE
 70
     0
  9
$REGENMODE
 70
     1
  9
$FILLMODE
 70
     1
  9
$QTEXTMODE
 70
     0
  9
$MIRRTEXT
 70
     1
  9
$LTSCALE
 40
1.0
  9
$ATTMODE
 70
     1
  9
$TEXTSIZE
 40
2.5
  9
$TRACEWID
 40
1.0
  9
$TEXTSTYLE
  7
STANDARD
  9
$CLAYER
  8
REF_LINES
  9
$CELTYPE
  6
BYLAYER
  9
$CECOLOR
 62
   256
  9
$CELTSCALE
 40
1.0
  9
$DISPSILH
 70
     0
  9
$DIMSCALE
 40
4.0
  9
$DIMASZ
 40
2.5
  9
$DIMEXO
 40
0.625
  9
$DIMDLI
 40
3.75
  9
$DIMRND
 40
0.0
  9
$DIMDLE
 40
0.0
  9
$DIMEXE
 40
1.25
  9
$DIMTP
 40
0.0
  9
$DIMTM
 40
0.0
  9
$DIMTXT
 40
2.5
  9
$DIMCEN
 40
2.5
  9
$DIMTSZ
 40
0.0
  9
$DIMTOL
 70
     0
  9
$DIMLIM
 70
     0
  9
$DIMTIH
 70
     0
  9
$DIMTOH
 70
     0
  9
$DIMSE1
 70
     0
  9
$DIMSE2
 70
     0
  9
$DIMTAD
 70
     1
  9
$DIMZIN
 70
     8
  9
$DIMBLK
  1

  9
$DIMASO
 70
     1
  9
$DIMSHO
 70
     1
  9
$DIMPOST
  1

  9
$DIMAPOST
  1

  9
$DIMALT
 70
     0
  9
$DIMALTD
 70
     4
  9
$DIMALTF
 40
0.0394
  9
$DIMLFAC
 40
1.0
  9
$DIMTOFL
 70
     1
  9
$DIMTVP
 40
0.0
  9
$DIMTIX
 70
     0
  9
$DIMSOXD
 70
     0
  9
$DIMSAH
 70
     0
  9
$DIMBLK1
  1

  9
$DIMBLK2
  1

  9
$DIMSTYLE
  2
STANDARD
  9
$DIMCLRD
 70
     0
  9
$DIMCLRE
 70
     0
  9
$DIMCLRT
 70
     0
  9
$DIMTFAC
 40
1.0
  9
$DIMGAP
 40
0.625
  9
$DIMJUST
 70
     0
  9
$DIMSD1
 70
     0
  9
$DIMSD2
 70
     0
  9
$DIMTOLJ
 70
     1
  9
$DIMTZIN
 70
     0
  9
$DIMALTZ
 70
     0
  9
$DIMALTTZ
 70
     0
  9
$DIMUPT
 70
     0
  9
$DIMDEC
 70
     0
  9
$DIMTDEC
 70
     4
  9
$DIMALTU
 70
     8
  9
$DIMALTTD
 70
     4
  9
$DIMTXSTY
  7
STANDARD
  9
$DIMAUNIT
 70
     0
  9
$DIMADEC
 70
     0
  9
$DIMALTRND
 40
0.0
  9
$DIMAZIN
 70
     0
  9
$DIMDSEP
 70
    46
  9
$DIMATFIT
 70
     3
  9
$DIMFRAC
 70
     0
  9
$DIMLDRBLK
  1

  9
$DIMLUNIT
 70
     2
  9
$DIMLWD
 70
    -2
  9
$DIMLWE
 70
    -2
  9
$DIMTMOVE
 70
     0
  9
$LUNITS
 70
     2
  9
$LUPREC
 70
     4
  9
$SKETCHINC
 40
1.0
  9
$FILLETRAD
 40
5.0
  9
$AUNITS
 70
     0
  9
$AUPREC
 70
     0
  9
$MENU
  1
.
  9
$ELEVATION
 40
0.0
  9
$PELEVATION
 40
0.0
  9
$THICKNESS
 40
0.0
  9
$LIMCHECK
 70
     0
  9
$CHAMFERA
 40
10.0
  9
$CHAMFERB
 40
10.0
  9
$CHAMFERC
 40
20.0
  9
$CHAMFERD
 40
0.0
  9
$SKPOLY
 70
     0
  9
$TDCREATE
 40
2454633.689831666
  9
$TDUCREATE
 40
2454633.273165000
  9
$TDUPDATE
 40
2455148.689373483
  9
$TDUUPDATE
 40
2455148.272706817
  9
$TDINDWG
 40
0.5780015394
  9
$TDUSRTIMER
 40
0.5780013079
  9
$USRTIMER
 70
     1
  9
$ANGBASE
 50
0.0
  9
$ANGDIR
 70
     0
  9
$PDMODE
 70
     0
  9
$PDSIZE
 40
0.0
  9
$PLINEWID
 40
0.0
  9
$SPLFRAME
 70
     0
  9
$SPLINETYPE
 70
     6
  9
$SPLINESEGS
 70
     8
  9
$HANDSEED
  5
3D4
  9
$SURFTAB1
 70
     6
  9
$SURFTAB2
 70
     6
  9
$SURFTYPE
 70
     6
  9
$SURFU
 70
     6
  9
$SURFV
 70
     6
  9
$UCSBASE
  2

  9
$UCSNAME
  2

  9
$UCSORG
 10
300.5581057112941
 20
-3.870045704760343
 30
0.0
  9
$UCSXDIR
 10
1.0
 20
0.0
 30
0.0
  9
$UCSYDIR
 10
0.0
 20
1.0
 30
0.0
  9
$UCSORTHOREF
  2

  9
$UCSORTHOVIEW
 70
     0
  9
$UCSORGTOP
 10
0.0
 20
0.0
 30
0.0
  9
$UCSORGBOTTOM
 10
0.0
 20
0.0
 30
0.0
  9
$UCSORGLEFT
 10
0.0
 20
0.0
 30
0.0
  9
$UCSORGRIGHT
 10
0.0
 20
0.0
 30
0.0
  9
$UCSORGFRONT
 10
0.0
 20
0.0
 30
0.0
  9
$UCSORGBACK
 10
0.0
 20
0.0
 30
0.0
  9
$PUCSBASE
  2

  9
$PUCSNAME
  2

  9
$PUCSORG
 10
0.0
 20
0.0
 30
0.0
  9
$PUCSXDIR
 10
1.0
 20
0.0
 30
0.0
  9
$PUCSYDIR
 10
0.0
 20
1.0
 30
0.0
  9
$PUCSORTHOREF
  2

  9
$PUCSORTHOVIEW
 70
     0
  9
$PUCSORGTOP
 10
0.0
 20
0.0
 30
0.0
  9
$PUCSORGBOTTOM
 10
0.0
 20
0.0
 30
0.0
  9
$PUCSORGLEFT
 10
0.0
 20
0.0
 30
0.0
  9
$PUCSORGRIGHT
 10
0.0
 20
0.0
 30
0.0
  9
$PUCSORGFRONT
 10
0.0
 20
0.0
 30
0.0
  9
$PUCSORGBACK
 10
0.0
 20
0.0
 30
0.0
  9
$USERI1
 70
     0
  9
$USERI2
 70
     0
  9
$USERI3
 70
     0
  9
$USERI4
 70
     0
  9
$USERI5
 70
     0
  9
$USERR1
 40
0.0
  9
$USERR2
 40
0.0
  9
$USERR3
 40
0.0
  9
$USERR4
 40
0.0
  9
$USERR5
 40
0.0
  9
$WORLDVIEW
 70
     1
  9
$SHADEDGE
 70
     3
  9
$SHADEDIF
 70
    70
  9
$TILEMODE
 70
     1
  9
$MAXACTVP
 70
    48
  9
$PINSBASE
 10
0.0
 20
0.0
 30
0.0
  9
$PLIMCHECK
 70
     0
  9
$PEXTMIN
 10
0.0
 20
0.0
 30
0.0
  9
$PEXTMAX
 10
561.755976
 20
297.0
 30
0.0
  9
$PLIMMIN
 10
0.0
 20
0.0
  9
$PLIMMAX
 10
420.0
 20
297.0
  9
$UNITMODE
 70
     0
  9
$VISRETAIN
 70
     1
  9
$PLINEGEN
 70
     0
  9
$PSLTSCALE
 70
     1
  9
$TREEDEPTH
 70
  3020
  9
$CMLSTYLE
  2
STANDARD
  9
$CMLJUST
 70
     0
  9
$CMLSCALE
 40
20.0
  9
$PROXYGRAPHICS
 70
     1
  9
$MEASUREMENT
 70
     1
  9
$CELWEIGHT
370
    -1
  9
$ENDCAPS
280
     0
  9
$JOINSTYLE
280
     0
  9
$LWDISPLAY
290
     0
  9
$INSUNITS
 70
     0
  9
$HYPERLINKBASE
  1

  9
$STYLESHEET
  1

  9
$XEDIT
290
     1
  9
$CEPSNTYPE
380
     0
  9
$PSTYLEMODE
290
     1
  9
$FINGERPRINTGUID
  2
{18AE0F1C-768A-4FF1-B3F9-2C8EDE924AE5}
  9
$VERSIONGUID
  2
{C0F24743-707D-49E0-A343-52D8935B5A71}
  9
$EXTNAMES
290
     1
  9
$PSVPSCALE
 40
0.0
  9
$OLESTARTUP
290
     0
  0
ENDSEC
  0
SECTION
  2
CLASSES
  0
CLASS
  1
ACDBDICTIONARYWDFLT
  2
AcDbDictionaryWithDefault
  3
AutoCAD 2000
 90
        0
280
     0
281
     0
  0
CLASS
  1
ACDBPLACEHOLDER
  2
AcDbPlaceHolder
  3
AutoCAD 2000
 90
        0
280
     0
281
     0
  0
CLASS
  1
LAYOUT
  2
AcDbLayout
  3
AutoCAD 2000
 90
        0
280
     0
281
     0
  0
ENDSEC
  0
SECTION
  2
TABLES
  0
TABLE
  2
VPORT
  5
8
330
0
100
AcDbSymbolTable
 70
     5
  0
VPORT
  5
3D3
330
8
100
AcDbSymbolTableRecord
100
AcDbViewportTableRecord
  2
*Active
 70
     0
 10
0.0
 20
0.0
 11
1.0
 21
1.0
 12
760.5369935608175
 22
-33.91445312429993
 13
0.0
 23
0.0
 14
10.0
 24
10.0
 15
10.0
 25
10.0
 16
0.0
 26
0.0
 36
1.0
 17
0.0
 27
0.0
 37
0.0
 40
661.906182540213
 41
1.467980295566502
 42
50.0
 43
0.0
 44
0.0
 50
0.0
 51
0.0
 71
     0
 72
   100
 73
     1
 74
     1
 75
     0
 76
     0
 77
     0
 78
     0
281
     0
 65
     1
110
300.5581057112941
120
-3.870045704760343
130
0.0
111
1.0
121
0.0
131
0.0
112
0.0
122
1.0
132
0.0
 79
     0
146
0.0
  0
ENDTAB
  0
TABLE
  2
LTYPE
  5
5
330
0
100
AcDbSymbolTable
 70
     1
  0
LTYPE
  5
12
330
5
100
AcDbSymbolTableRecord
100
AcDbLinetypeTableRecord
  2
BYBLOCK
 70
     0
  3

 72
    65
 73
     0
 40
0.0
  0
LTYPE
  5
13
330
5
100
AcDbSymbolTableRecord
100
AcDbLinetypeTableRecord
  2
BYLAYER
 70
     0
  3

 72
    65
 73
     0
 40
0.0
  0
LTYPE
  5
14
330
5
100
AcDbSymbolTableRecord
100
AcDbLinetypeTableRecord
  2
CONTINUOUS
 70
     0
  3
Solid line
 72
    65
 73
     0
 40
0.0
  0
ENDTAB
  0
TABLE
  2
LAYER
  5
2
330
0
100
AcDbSymbolTable
 70
     3
  0
LAYER
  5
E
330
2
100
AcDbSymbolTableRecord
100
AcDbLayerTableRecord
  2
0
 70
     0
 62
     7
  6
CONTINUOUS
370
    -3
390
392
  0
LAYER
  5
13C
330
2
100
AcDbSymbolTableRecord
100
AcDbLayerTableRecord
  2
DEFPOINTS
 70
     0
 62
     7
  6
CONTINUOUS
290
     0
370
    -3
390
392
  0
LAYER
  5
24A
330
2
100
AcDbSymbolTableRecord
100
AcDbLayerTableRecord
  2
REF_LINES
 70
     0
 62
     4
  6
CONTINUOUS
370
    -3
390
392
  0
ENDTAB
  0
TABLE
  2
STYLE
  5
3
330
0
100
AcDbSymbolTable
 70
     1
  0
STYLE
  5
F
330
3
100
AcDbSymbolTableRecord
100
AcDbTextStyleTableRecord
  2
STANDARD
 70
     0
 40
0.0
 41
1.0
 50
0.0
 71
     0
 42
2.5
  3
txt
  4

  0
ENDTAB
  0
TABLE
  2
VIEW
  5
6
330
0
100
AcDbSymbolTable
 70
     0
  0
ENDTAB
  0
TABLE
  2
UCS
  5
7
330
0
100
AcDbSymbolTable
 70
     0
  0
ENDTAB
  0
TABLE
  2
APPID
  5
9
330
0
100
AcDbSymbolTable
 70
     1
  0
APPID
  5
10
330
9
100
AcDbSymbolTableRecord
100
AcDbRegAppTableRecord
  2
ACAD
 70
     0
  0
ENDTAB
  0
TABLE
  2
DIMSTYLE
  5
A
330
0
100
AcDbSymbolTable
 70
     1
100
AcDbDimStyleTable
 71
     0
  0
DIMSTYLE
105
1D
102
{ACAD_REACTORS
330
36F
330
388
102
}
330
A
100
AcDbSymbolTableRecord
100
AcDbDimStyleTableRecord
  2
STANDARD
 70
     0
340
F
  0
ENDTAB
  0
TABLE
  2
BLOCK_RECORD
  5
1
330
0
100
AcDbSymbolTable
 70
     2
  0
BLOCK_RECORD
  5
18
330
1
100
AcDbSymbolTableRecord
100
AcDbBlockTableRecord
  2
*MODEL_SPACE
340
395
  0
BLOCK_RECORD
  5
15
330
1
100
AcDbSymbolTableRecord
100
AcDbBlockTableRecord
  2
*PAPER_SPACE
340
396
  0
BLOCK_RECORD
  5
363
330
1
100
AcDbSymbolTableRecord
100
AcDbBlockTableRecord
  2
*D0
340
0
  0
BLOCK_RECORD
  5
37C
330
1
100
AcDbSymbolTableRecord
100
AcDbBlockTableRecord
  2
*D1
340
0
  0
ENDTAB
  0
ENDSEC
  0
SECTION
  2
BLOCKS
  0
BLOCK
  5
19
330
18
100
AcDbEntity
  8
0
100
AcDbBlockBegin
  2
*MODEL_SPACE
 70
     0
 10
0.0
 20
0.0
 30
0.0
  3
*MODEL_SPACE
  1

  0
ENDBLK
  5
1A
330
18
100
AcDbEntity
  8
0
100
AcDbBlockEnd
  0
BLOCK
  5
16
330
15
100
AcDbEntity
 67
     1
  8
0
100
AcDbBlockBegin
  2
*PAPER_SPACE
 70
     0
 10
0.0
 20
0.0
 30
0.0
  3
*PAPER_SPACE
  1

  0
ENDBLK
  5
17
330
15
100
AcDbEntity
 67
     1
  8
0
100
AcDbBlockEnd
  0
BLOCK
  5
371
330
363
100
AcDbEntity
  8
0
100
AcDbBlockBegin
  2
*D0
 70
     1
 10
0.0
 20
0.0
 30
0.0
  3
*D0
  1

  0
LINE
  5
372
330
363
100
AcDbEntity
  8
0
  6
ByBlock
 62
     0
100
AcDbLine
 10
233.0526509999999
 20
-257.295
 30
0.0
 11
214.144623
 21
-257.295
 31
0.0
  0
LINE
  5
373
330
363
100
AcDbEntity
  8
0
  6
ByBlock
 62
     0
100
AcDbLine
 10
233.0526509999999
 20
242.705
 30
0.0
 11
214.144623
 21
242.705
 31
0.0
  0
LINE
  5
374
330
363
100
AcDbEntity
  8
0
  6
ByBlock
 62
     0
100
AcDbLine
 10
219.1446229999999
 20
-247.2949999999999
 30
0.0
 11
219.1446229999999
 21
232.705
 31
0.0
  0
SOLID
  5
375
330
363
100
AcDbEntity
  8
0
  6
ByBlock
 62
     0
100
AcDbTrace
 10
217.477956
 20
-247.2949999999999
 30
0.0
 11
220.8112899999999
 21
-247.2949999999999
 31
0.0
 12
219.1446229999999
 22
-257.295
 32
0.0
 13
219.1446229999999
 23
-257.295
 33
0.0
  0
SOLID
  5
376
330
363
100
AcDbEntity
  8
0
  6
ByBlock
 62
     0
100
AcDbTrace
 10
217.477956
 20
232.705
 30
0.0
 11
220.8112899999999
 21
232.705
 31
0.0
 12
219.1446229999999
 22
242.705
 32
0.0
 13
219.1446229999999
 23
242.705
 33
0.0
  0
MTEXT
  5
377
330
363
100
AcDbEntity
  8
0
  6
ByBlock
 62
     0
100
AcDbMText
 10
211.644623
 20
-7.294999999999999
 30
0.0
 40
10.0
 41
0.0
 71
     5
 72
     1
  1
\A1;500
 11
0.0
 21
1.0
 31
0.0
 73
     1
 44
1.0
  0
POINT
  5
378
330
363
100
AcDbEntity
  8
DEFPOINTS
  6
ByBlock
 62
     0
100
AcDbPoint
 10
235.5526509999999
 20
-257.295
 30
0.0
  0
POINT
  5
379
330
363
100
AcDbEntity
  8
DEFPOINTS
  6
ByBlock
 62
     0
100
AcDbPoint
 10
235.5526509999999
 20
242.705
 30
0.0
  0
POINT
  5
37A
330
363
100
AcDbEntity
  8
DEFPOINTS
  6
ByBlock
 62
     0
100
AcDbPoint
 10
219.1446229999999
 20
242.705
 30
0.0
  0
ENDBLK
  5
37B
330
363
100
AcDbEntity
  8
0
100
AcDbBlockEnd
  0
BLOCK
  5
37D
330
37C
100
AcDbEntity
  8
0
100
AcDbBlockBegin
  2
*D1
 70
     1
 10
0.0
 20
0.0
 30
0.0
  3
*D1
  1

  0
LINE
  5
37E
330
37C
100
AcDbEntity
  8
0
  6
ByBlock
 62
     0
100
AcDbLine
 10
245.883633
 20
47.700033
 30
0.0
 11
245.883633
 21
81.17844000000001
 31
0.0
  0
LINE
  5
37F
330
37C
100
AcDbEntity
  8
0
  6
ByBlock
 62
     0
100
AcDbLine
 10
1245.883633
 20
47.700033
 30
0.0
 11
1245.883633
 21
81.17844000000001
 31
0.0
  0
LINE
  5
380
330
37C
100
AcDbEntity
  8
0
  6
ByBlock
 62
     0
100
AcDbLine
 10
255.883633
 20
76.17844000000001
 30
0.0
 11
1235.883633
 21
76.17844000000001
 31
0.0
  0
SOLID
  5
381
330
37C
100
AcDbEntity
  8
0
  6
ByBlock
 62
     0
100
AcDbTrace
 10
255.883633
 20
77.845107
 30
0.0
 11
255.883633
 21
74.51177300000001
 31
0.0
 12
245.883633
 22
76.17844000000001
 32
0.0
 13
245.883633
 23
76.17844000000001
 33
0.0
  0
SOLID
  5
382
330
37C
100
AcDbEntity
  8
0
  6
ByBlock
 62
     0
100
AcDbTrace
 10
1235.883633
 20
77.845107
 30
0.0
 11
1235.883633
 21
74.51177300000001
 31
0.0
 12
1245.883633
 22
76.17844000000001
 32
0.0
 13
1245.883633
 23
76.17844000000001
 33
0.0
  0
MTEXT
  5
383
330
37C
100
AcDbEntity
  8
0
  6
ByBlock
 62
     0
100
AcDbMText
 10
745.883633
 20
84.51177300000001
 30
0.0
 40
10.0
 41
0.0
 71
     5
 72
     1
  1
\A1;1,000
 73
     1
 44
1.0
  0
POINT
  5
384
330
37C
100
AcDbEntity
  8
DEFPOINTS
  6
ByBlock
 62
     0
100
AcDbPoint
 10
245.883633
 20
45.200033
 30
0.0
  0
POINT
  5
385
330
37C
100
AcDbEntity
  8
DEFPOINTS
  6
ByBlock
 62
     0
100
AcDbPoint
 10
1245.883633
 20
45.200033
 30
0.0
  0
POINT
  5
386
330
37C
100
AcDbEntity
  8
DEFPOINTS
  6
ByBlock
 62
     0
100
AcDbPoint
 10
1245.883633
 20
76.17844000000001
 30
0.0
  0
ENDBLK
  5
387
330
37C
100
AcDbEntity
  8
0
100
AcDbBlockEnd
  0
ENDSEC
  0
SECTION
  2
ENTITIES
  0
ARC
  5
2D
330
18
100
AcDbEntity
  8
0
100
AcDbCircle
 10
1379.672149
 20
179.24455
 30
0.0
 40
300.0
100
AcDbArc
 50
166.9474759999999
 51
190.1329697514337
  0
LINE
  5
35
330
18
100
AcDbEntity
  8
0
100
AcDbLine
 10
842.955538
 20
268.985
 30
0.0
 11
1098.424035
 21
330.98935
 31
0.0
  0
ARC
  5
3C
330
18
100
AcDbEntity
  8
0
100
AcDbCircle
 10
820.4218710000001
 20
272.4826909999999
 30
0.0
 40
19.0
100
AcDbArc
 50
295.708549
 51
317.606324
  0
LINE
  5
3D
330
18
100
AcDbEntity
  8
0
100
AcDbLine
 10
842.955538
 20
268.985
 30
0.0
 11
834.453936
 21
259.6724939999999
 31
0.0
  0
MTEXT
  5
8D
330
18
100
AcDbEntity
  8
REF_LINES
100
AcDbMText
 10
463.879002
 20
-105.437281
 30
0.0
 40
10.0
 41
234.6709999999999
 71
     1
 72
     5
  1
Right Outside
 11
0.9953115375858319
 21
0.0967209550641801
 31
0.0
 73
     1
 44
1.0
  0
ARC
  5
110
330
18
100
AcDbEntity
  8
0
100
AcDbCircle
 10
729.3108089999999
 20
221.957977
 30
0.0
 40
13.0
100
AcDbArc
 50
277.58549
 51
295.708549
  0
ARC
  5
111
330
18
100
AcDbEntity
  8
0
100
AcDbCircle
 10
581.584774
 20
202.2851909999999
 30
0.0
 40
13.0
100
AcDbArc
 50
272.438008
 51
277.58549
  0
LINE
  5
113
330
18
100
AcDbEntity
  8
0
100
AcDbLine
 10
731.026879
 20
209.0717399999999
 30
0.0
 11
583.3008440000001
 21
189.3989539999999
 31
0.0
  0
LINE
  5
114
330
18
100
AcDbEntity
  8
0
100
AcDbLine
 10
828.6639479999999
 20
255.3634569999999
 30
0.0
 11
734.9501249999999
 21
210.2448169999999
 31
0.0
  0
LINE
  5
11D
330
18
100
AcDbEntity
  8
0
100
AcDbLine
 10
287.944371744623
 20
176.7710969075481
 30
0.0
 11
582.137774
 21
189.296959
 31
0.0
  0
ARC
  5
1B0
330
18
100
AcDbEntity
  8
0
100
AcDbCircle
 10
817.209317
 20
-97.45786899999998
 30
0.0
 40
12.0
100
AcDbArc
 50
249.740127
 51
268.298774
  0
LINE
  5
1B1
330
18
100
AcDbEntity
  8
0
100
AcDbLine
 10
1110.348675536084
 20
-118.1696120638027
 30
0.0
 11
816.853066
 21
-109.45258
 31
0.0
  0
ARC
  5
1B2
330
18
100
AcDbEntity
  8
0
100
AcDbCircle
 10
552.7309209999999
 20
-27.549514
 30
0.0
 40
14.0
100
AcDbArc
 50
69.740127
 51
83.66582599999999
  0
LINE
  5
1B3
330
18
100
AcDbEntity
  8
0
100
AcDbLine
 10
813.0539719999999
 20
-108.7154489999999
 30
0.0
 11
557.578823
 21
-14.415671
 31
0.0
  0
LINE
  5
1B4
330
18
100
AcDbEntity
  8
0
100
AcDbLine
 10
481.5239919999999
 20
-5.559215000000001
 30
0.0
 11
554.2755009999999
 21
-13.63497999999999
 31
0.0
  0
LINE
  5
1B5
330
18
100
AcDbEntity
  8
0
100
AcDbLine
 10
456.737925
 20
-2.145879999999998
 30
0.0
 11
481.5239919999999
 21
-5.559215000000001
 31
0.0
  0
ARC
  5
1B6
330
18
100
AcDbEntity
  8
0
100
AcDbCircle
 10
284.7143669999999
 20
26.62729699999999
 30
0.0
 40
6.0
100
AcDbArc
 50
78.533013
 51
183.3454929999999
  0
LINE
  5
1B7
330
18
100
AcDbEntity
  8
0
100
AcDbLine
 10
456.737925
 20
-2.145879999999998
 30
0.0
 11
285.907187
 21
32.507534
 31
0.0
  0
ARC
  5
1B8
330
18
100
AcDbEntity
  8
0
100
AcDbCircle
 10
388.794679
 20
-8.604629000000002
 30
0.0
 40
100.0
100
AcDbArc
 50
196.2387129999999
 51
219.856227
  0
ARC
  5
1BB
330
18
100
AcDbEntity
  8
0
100
AcDbCircle
 10
478.3837519999999
 20
37.948496
 30
0.0
 40
200.0
100
AcDbArc
 50
183.3454929999999
 51
201.875164
  0
ARC
  5
1CD
330
18
100
AcDbEntity
  8
0
100
AcDbCircle
 10
118.3300259999999
 20
-155.4254389999999
 30
0.0
 40
200.0
100
AcDbArc
 50
351.7464088911572
 51
8.389165
  0
ARC
  5
1CF
330
18
100
AcDbEntity
  8
0
100
AcDbCircle
 10
612.0071789999999
 20
-76.32425999999999
 30
0.0
 40
300.0
100
AcDbArc
 50
179.3060749999999
 51
189.578958
  0
ARC
  5
23B
330
18
100
AcDbEntity
  8
0
100
AcDbCircle
 10
609.081492
 20
392.5632189999999
 30
0.0
 40
500.0
100
AcDbArc
 50
343.074331
 51
352.2871929999999
  0
ARC
  5
23C
330
18
100
AcDbEntity
  8
0
100
AcDbCircle
 10
1099.60334
 20
326.130416
 30
0.0
 40
5.0
100
AcDbArc
 50
352.2871929999999
 51
103.6423709999999
  0
MTEXT
  5
361
330
18
100
AcDbEntity
  8
REF_LINES
100
AcDbMText
 10
794.6130000000001
 20
227.9904559999999
 30
0.0
 40
10.0
 41
227.813312
 71
     1
 72
     5
  1
Left Outside
 11
0.9937053837442507
 21
-0.1120250432612794
 31
0.0
 73
     1
 44
1.0
  0
LINE
  5
362
330
18
100
AcDbEntity
  8
REF_LINES
100
AcDbLine
 10
235.5526509999999
 20
-257.295
 30
0.0
 11
235.5526509999999
 21
242.705
 31
0.0
  0
DIMENSION
  5
36F
330
18
100
AcDbEntity
  8
REF_LINES
100
AcDbDimension
  2
*D0
 10
219.1446229999999
 20
242.705
 30
0.0
 11
211.644623
 21
-7.294999999999999
 31
0.0
 70
    32
 71
     5
 42
-1.0
  3
STANDARD
100
AcDbAlignedDimension
 13
235.5526509999999
 23
-257.295
 33
0.0
 14
235.5526509999999
 24
242.705
 34
0.0
 50
90.0
100
AcDbRotatedDimension
1001
ACAD
1000
DSTYLE
1002
{
1070
    78
1070
     8
1070
   270
1070
     8
1070
   140
1040
2.5
1070
    74
1070
     0
1070
   172
1070
     1
1070
    73
1070
     0
1070
    77
1070
     1
1070
    40
1040
4.0
1070
   147
1040
0.625
1070
    42
1040
0.625
1070
    44
1040
1.25
1070
    43
1040
3.75
1070
   271
1070
     0
1070
   141
1040
2.5
1070
    41
1040
2.5
1070
   273
1070
     8
1070
   274
1070
     4
1070
   143
1040
0.0394
1070
   171
1070
     4
1002
}
  0
LINE
  5
370
330
18
100
AcDbEntity
  8
REF_LINES
100
AcDbLine
 10
245.883633
 20
45.200033
 30
0.0
 11
1245.883633
 21
45.200033
 31
0.0
  0
DIMENSION
  5
388
330
18
100
AcDbEntity
  8
REF_LINES
100
AcDbDimension
  2
*D1
 10
1245.883633
 20
76.17844000000001
 30
0.0
 11
745.883633
 21
84.51177300000001
 31
0.0
 70
    32
 71
     5
 42
-1.0
  3
STANDARD
100
AcDbAlignedDimension
 13
245.883633
 23
45.200033
 33
0.0
 14
1245.883633
 24
45.200033
 34
0.0
100
AcDbRotatedDimension
1001
ACAD
1000
DSTYLE
1002
{
1070
    78
1070
     8
1070
   270
1070
     8
1070
   140
1040
2.5
1070
    74
1070
     0
1070
   172
1070
     1
1070
    73
1070
     0
1070
    77
1070
     1
1070
    40
1040
4.0
1070
   147
1040
0.625
1070
    42
1040
0.625
1070
    44
1040
1.25
1070
    43
1040
3.75
1070
   271
1070
     0
1070
   141
1040
2.5
1070
    41
1040
2.5
1070
   273
1070
     8
1070
   274
1070
     4
1070
   143
1040
0.0394
1070
   171
1070
     4
1002
}
  0
ARC
  5
39A
330
18
100
AcDbEntity
  8
0
100
AcDbCircle
 10
1510.602081
 20
-184.022676
 30
0.0
 40
400.0
100
AcDbArc
 50
171.3580103717015
 51
188.5567599999999
  0
LINE
  5
39B
330
18
100
AcDbEntity
  8
0
100
AcDbLine
 10
1054.281787717585
 20
-261.3820395891038
 30
0.0
 11
980.7022917175853
 21
-258.9849665891037
 31
0.0
  0
LINE
  5
39C
330
18
100
AcDbEntity
  8
0
100
AcDbLine
 10
1062.711747837614
 20
-261.3334701249519
 30
0.0
 11
1101.827388837614
 21
-259.6077601249519
 31
0.0
  0
ARC
  5
39D
330
18
100
AcDbEntity
  8
0
100
AcDbCircle
 10
1101.210334999999
 20
-245.6213649999999
 30
0.0
 40
14.0
100
AcDbArc
 50
272.526146
 51
8.55676
  0
ARC
  5
39E
330
18
100
AcDbEntity
  8
0
100
AcDbCircle
 10
1057.863468
 20
-151.4403659999999
 30
0.0
 40
110.0
100
AcDbArc
 50
268.1340779999999
 51
272.526146
  0
ARC
  5
39F
330
18
100
AcDbEntity
  8
0
100
AcDbCircle
 10
981.386067
 20
-237.996102
 30
0.0
 40
21.0
100
AcDbArc
 50
198.4833749999999
 51
268.1340779999999
  0
LINE
  5
3A0
330
18
100
AcDbEntity
  8
0
100
AcDbLine
 10
961.4693370433688
 20
-244.653720437743
 30
0.0
 11
956.3672310433688
 21
-229.3904144377429
 31
0.0
  0
ARC
  5
3A1
330
18
100
AcDbEntity
  8
0
100
AcDbCircle
 10
937.3989169999999
 20
-235.7310049999999
 30
0.0
 40
20.0
100
AcDbArc
 50
18.48337499999999
 51
78.162183
  0
LINE
  5
3A2
330
18
100
AcDbEntity
  8
0
100
AcDbLine
 10
941.5017590085358
 20
-216.1563609991874
 30
0.0
 11
747.1794940085357
 21
-175.4264479991874
 31
0.0
  0
ARC
  5
3A3
330
18
100
AcDbEntity
  8
0
100
AcDbCircle
 10
742.4612259999999
 20
-197.937289
 30
0.0
 40
23.0
100
AcDbArc
 50
78.162183
 51
137.8765919999999
  0
ARC
  5
3A4
330
18
100
AcDbEntity
  8
0
100
AcDbCircle
 10
742.4612259999999
 20
-197.937289
 30
0.0
 40
23.0
100
AcDbArc
 50
78.162183
 51
137.8765919999999
  0
LINE
  5
3A5
330
18
100
AcDbEntity
  8
0
100
AcDbLine
 10
606.5992870342439
 20
-171.418172313716
 30
0.0
 11
711.0875600342438
 21
-187.5905593137161
 31
0.0
  0
ARC
  5
3A6
330
18
100
AcDbEntity
  8
0
100
AcDbCircle
 10
742.4612259999999
 20
-197.937289
 30
0.0
 40
23.0
100
AcDbArc
 50
78.162183
 51
137.8765919999999
  0
ARC
  5
3A7
330
18
100
AcDbEntity
  8
0
100
AcDbCircle
 10
489.863915
 20
-755.883725
 30
0.0
 40
596.0
100
AcDbArc
 50
78.74612500000001
 51
84.449623
  0
LINE
  5
3A8
330
18
100
AcDbEntity
  8
0
100
AcDbLine
 10
496.7486907733112
 20
-157.7452794073389
 30
0.0
 11
547.5095787733112
 21
-162.6780464073389
 31
0.0
  0
ARC
  5
3A9
330
18
100
AcDbEntity
  8
0
100
AcDbCircle
 10
495.2978769999999
 20
-172.674952
 30
0.0
 40
15.0
100
AcDbArc
 50
84.449623
 51
148.4025019999999
  0
LINE
  5
3AA
330
18
100
AcDbEntity
  8
0
100
AcDbLine
 10
460.1886840929137
 20
-201.1209592112842
 30
0.0
 11
482.5216300929136
 21
-164.8157222112842
 31
0.0
  0
LINE
  5
3AB
330
18
100
AcDbEntity
  8
0
100
AcDbLine
 10
447.350755808257
 20
-207.1892278537319
 30
0.0
 11
320.5278006074383
 21
-189.8078351288451
 31
0.0
  0
ARC
  5
3AC
330
18
100
AcDbEntity
  8
0
100
AcDbCircle
 10
449.115936
 20
-194.309626
 30
0.0
 40
13.0
100
AcDbArc
 50
262.196094
 51
328.402502
  0
ARC
  5
3AD
330
18
100
AcDbEntity
  8
0
100
AcDbCircle
 10
713.5348519999999
 20
-171.7788309999999
 30
0.0
 40
16.0
100
AcDbArc
 50
261.201741
 51
317.876592
  0
ARC
  5
3AE
330
18
100
AcDbEntity
  8
0
100
AcDbCircle
 10
-114.327507
 20
126.7071169999999
 30
0.0
 40
400.0
100
AcDbArc
 50
350.014768
 51
6.389122266643006
  0
ARC
  5
3AF
330
18
100
AcDbEntity
  8
0
100
AcDbCircle
 10
296.3559769999999
 20
54.401679
 30
0.0
 40
17.0
100
AcDbArc
 50
170.014768
 51
268.4928529999999
  0
LINE
  5
3B1
330
18
100
AcDbEntity
  8
0
100
AcDbLine
 10
336.9400739497777
 20
36.35192032959161
 30
0.0
 11
415.9892679497777
 21
39.74256932959161
 31
0.0
  0
LINE
  5
3B2
330
18
100
AcDbEntity
  8
0
100
AcDbLine
 10
336.248522540801
 20
36.34619348129101
 30
0.0
 11
295.9088485408009
 21
37.40756048129102
 31
0.0
  0
ARC
  5
3B3
330
18
100
AcDbEntity
  8
0
100
AcDbCircle
 10
415.432172
 20
52.730627
 30
0.0
 40
13.0
100
AcDbArc
 50
272.456076
 51
10.953961
  0
LINE
  5
3B4
330
18
100
AcDbEntity
  8
0
100
AcDbLine
 10
425.5615328230704
 20
68.80888992687886
 30
0.0
 11
428.1953148230704
 21
55.20088892687887
 31
0.0
  0
ARC
  5
3B5
330
18
100
AcDbEntity
  8
0
100
AcDbCircle
 10
427.525094
 20
69.18893
 30
0.0
 40
2.0
100
AcDbArc
 50
87.999197
 51
190.953961
  0
ARC
  5
3B6
330
18
100
AcDbEntity
  8
0
100
AcDbCircle
 10
441.909458
 20
480.937749
 30
0.0
 40
410.0
100
AcDbArc
 50
267.999197
 51
279.81161
  0
LINE
  5
3B7
330
18
100
AcDbEntity
  8
0
100
AcDbLine
 10
671.6125006009498
 20
109.8296888048958
 30
0.0
 11
512.0892376009499
 21
76.9937368048959
 31
0.0
  0
LINE
  5
3B8
330
18
100
AcDbEntity
  8
0
100
AcDbLine
 10
671.5152320099612
 20
109.8101696568834
 30
0.0
 11
805.4993950099612
 21
136.0064316568835
 31
0.0
  0
LINE
  5
3B9
330
18
100
AcDbEntity
  8
0
100
AcDbLine
 10
903.7747960800547
 20
149.0432726718742
 30
0.0
 11
853.0958190800548
 21
143.3300176718742
 31
0.0
  0
ARC
  5
3BA
330
18
100
AcDbEntity
  8
0
100
AcDbCircle
 10
919.8624960000001
 20
-448.91842
 30
0.0
 40
596.0
100
AcDbArc
 50
96.43204
 51
101.062776
  0
ARC
  5
3BB
330
18
100
AcDbEntity
  8
0
100
AcDbCircle
 10
905.4551659999999
 20
134.1376919999999
 30
0.0
 40
15.0
100
AcDbArc
 50
32.47916
 51
96.43204
  0
LINE
  5
3BC
330
18
100
AcDbEntity
  8
0
100
AcDbLine
 10
940.9979099186761
 20
106.2352887216611
 30
0.0
 11
918.1089679186761
 21
142.1925837216611
 31
0.0
  0
ARC
  5
3BD
330
18
100
AcDbEntity
  8
0
100
AcDbCircle
 10
951.964538
 20
113.2161949999999
 30
0.0
 40
13.0
100
AcDbArc
 50
212.47916
 51
279.1238789999999
  0
LINE
  5
3BE
330
18
100
AcDbEntity
  8
0
100
AcDbLine
 10
1080.212893654189
 20
120.6464909252643
 30
0.0
 11
954.0259426541894
 21
100.3806739252643
 31
0.0
  0
ARC
  5
3BF
330
18
100
AcDbEntity
  8
0
100
AcDbCircle
 10
1079.429506796684
 20
125.5849208289751
 30
0.0
 40
5.0
100
AcDbArc
 50
279.1238789999999
 51
10.13296975143465
  0
LINE
  5
3C5
330
18
100
AcDbEntity
  8
0
100
AcDbLine
 10
1080.212893654189
 20
120.6464909252643
 30
0.0
 11
1080.222354672518
 21
120.648181799435
 31
0.0
  0
ARC
  5
3C7
330
18
100
AcDbEntity
  8
0
100
AcDbCircle
 10
288.1570638713152
 20
171.7756227499487
 30
0.0
 40
5.0
100
AcDbArc
 50
92.43800788605463
 51
186.3891222666429
  0
ARC
  5
3C8
330
18
100
AcDbEntity
  8
0
100
AcDbCircle
 10
1110.200237373268
 20
-123.1674081892784
 30
0.0
 40
5.0
100
AcDbArc
 50
351.3580103717017
 51
88.29877399046933
  0
ARC
  5
3C9
330
18
100
AcDbEntity
  8
0
100
AcDbCircle
 10
321.2067162033099
 20
-184.8541422019791
 30
0.0
 40
5.0
100
AcDbArc
 50
171.7464088911571
 51
262.1960936970646
  0
MTEXT
  5
3CB
330
18
100
AcDbEntity
  8
REF_LINES
100
AcDbMText
 10
304.4326065695317
 20
137.8717766586364
 30
0.0
 40
25.0
 41
46.4249
 71
     1
 72
     5
  1
Front
 73
     1
 44
1.0
  0
MTEXT
  5
3CC
330
18
100
AcDbEntity
  8
REF_LINES
100
AcDbMText
 10
1005.693101904677
 20
-151.9666019107969
 30
0.0
 40
25.0
 41
83.0762
 71
     1
 72
     5
  1
Front
 73
     1
 44
1.0
  0
MTEXT
  5
3D1
330
18
100
AcDbEntity
  8
REF_LINES
 62
     5
100
AcDbMText
 10
438.0060339963829
 20
41.80175283535504
 30
0.0
 40
10.0
 41
676.0118999999999
 71
     1
 72
     5
  1
10 mm is added to all edges, except top & back, to allow wrapping
 73
     1
 44
1.0
  0
VIEWPORT
  5
247
330
15
100
AcDbEntity
 67
     1
  8
0
100
AcDbViewport
 10
280.877988
 20
148.5
 30
0.0
 40
561.755976
 41
297.0
 68
     1
 69
     1
 12
280.877988
 22
148.5
 13
0.0
 23
0.0
 14
10.0
 24
10.0
 15
10.0
 25
10.0
 16
0.0
 26
0.0
 36
1.0
 17
0.0
 27
0.0
 37
0.0
 42
50.0
 43
0.0
 44
0.0
 45
297.0
 50
0.0
 51
0.0
 72
   100
 90
    32800
  1

281
     0
 71
     1
 74
     0
110
300.5581057112941
120
-3.870045704760343
130
0.0
111
1.0
121
0.0
131
0.0
112
0.0
122
1.0
132
0.0
 79
     0
146
0.0
  0
VIEWPORT
  5
249
330
15
100
AcDbEntity
 67
     1
  8
0
100
AcDbViewport
 10
280.877988
 20
148.5
 30
0.0
 40
561.755976
 41
297.0
 68
     2
 69
     2
 12
573.9965070000001
 22
31.217211
 13
0.0
 23
0.0
 14
10.0
 24
10.0
 15
10.0
 25
10.0
 16
0.0
 26
0.0
 36
1.0
 17
0.0
 27
0.0
 37
0.0
 42
50.0
 43
0.0
 44
0.0
 45
608.862704
 50
0.0
 51
0.0
 72
   100
 90
    32800
  1

281
     0
 71
     1
 74
     0
110
300.5581057112941
120
-3.870045704760343
130
0.0
111
1.0
121
0.0
131
0.0
112
0.0
122
1.0
132
0.0
 79
     0
146
0.0
  0
ENDSEC
  0
SECTION
  2
OBJECTS
  0
DICTIONARY
  5
C
330
0
100
AcDbDictionary
281
     1
  3
ACAD_GROUP
350
D
  3
ACAD_MLINESTYLE
350
1B
  3
ACAD_PLOTSTYLENAME
350
391
  3
ACAD_LAYOUT
350
393
  3
ACAD_PLOTSETTINGS
350
394
  0
DICTIONARY
  5
D
102
{ACAD_REACTORS
330
C
102
}
330
C
100
AcDbDictionary
281
     1
  0
DICTIONARY
  5
1B
102
{ACAD_REACTORS
330
C
102
}
330
C
100
AcDbDictionary
281
     1
  3
STANDARD
350
1C
  0
ACDBDICTIONARYWDFLT
  5
391
102
{ACAD_REACTORS
330
C
102
}
330
C
100
AcDbDictionary
281
     1
  3
Normal
350
392
100
AcDbDictionaryWithDefault
340
392
  0
DICTIONARY
  5
393
102
{ACAD_REACTORS
330
C
102
}
330
C
100
AcDbDictionary
281
     1
  3
Model
350
395
  3
Layout1
350
396
  0
DICTIONARY
  5
394
102
{ACAD_REACTORS
330
C
102
}
330
C
100
AcDbDictionary
281
     1
  0
MLINESTYLE
  5
1C
102
{ACAD_REACTORS
330
1B
102
}
330
1B
100
AcDbMlineStyle
  2
STANDARD
 70
     0
  3

 62
   256
 51
90.0
 52
90.0
 71
     2
 49
0.5
 62
   256
  6
BYLAYER
 49
-0.5
 62
   256
  6
BYLAYER
  0
ACDBPLACEHOLDER
  5
392
102
{ACAD_REACTORS
330
391
102
}
330
391
  0
LAYOUT
  5
395
102
{ACAD_REACTORS
330
393
102
}
330
393
100
AcDbPlotSettings
  1

  2
Adobe PDF
  4

  6

 40
0.0
 41
0.0
 42
0.0
 43
0.0
 44
0.0
 45
0.0
 46
0.0
 47
0.0
 48
0.0
 49
0.0
140
0.0
141
0.0
142
1.0
143
1.0
 70
  1712
 72
     0
 73
     0
 74
     0
  7

 75
     0
147
1.0
148
0.0
149
0.0
100
AcDbLayout
  1
Model
 70
     1
 71
     0
 10
0.0
 20
0.0
 11
12.0
 21
9.0
 12
0.0
 22
0.0
 32
0.0
 14
0.0
 24
0.0
 34
0.0
 15
0.0
 25
0.0
 35
0.0
146
0.0
 13
0.0
 23
0.0
 33
0.0
 16
1.0
 26
0.0
 36
0.0
 17
0.0
 27
1.0
 37
0.0
 76
     0
330
18
  0
LAYOUT
  5
396
102
{ACAD_REACTORS
330
393
102
}
330
393
100
AcDbPlotSettings
  1

  2
Adobe PDF
  4

  6

 40
0.0
 41
0.0
 42
0.0
 43
0.0
 44
0.0
 45
0.0
 46
0.0
 47
0.0
 48
0.0
 49
0.0
140
0.0
141
0.0
142
1.0
143
1.0
 70
   688
 72
     0
 73
     0
 74
     5
  7

 75
    16
147
1.0
148
0.0
149
0.0
100
AcDbLayout
  1
Layout1
 70
     1
 71
     1
 10
0.0
 20
0.0
 11
420.0
 21
297.0
 12
0.0
 22
0.0
 32
0.0
 14
0.0
 24
0.0
 34
0.0
 15
561.755976
 25
297.0
 35
0.0
146
0.0
 13
0.0
 23
0.0
 33
0.0
 16
1.0
 26
0.0
 36
0.0
 17
0.0
 27
1.0
 37
0.0
 76
     0
330
15
331
247
  0
ENDSEC
  0
EOF
